<svg width="390" height="926" viewBox="0 0 390 926" fill="none" xmlns="http://www.w3.org/2000/svg">
<path d="M81.0638 0H308.667C306.478 0.626364 304.943 2.59326 304.868 4.86848L304.838 5.78027C304.838 19.8073 293.467 31.1785 279.44 31.1785H110.29C96.2632 31.1785 84.892 19.8073 84.892 5.78027L84.8619 4.86848C84.7869 2.59327 83.2524 0.626364 81.0638 0Z" fill="#323238"/>
<path opacity="0.35" d="M365.723 18.5142H383.253C384.45 18.5142 385.42 19.4846 385.42 20.6812V27.1265C385.42 28.3229 384.45 29.2925 383.253 29.2925H365.723C364.526 29.2925 363.556 28.3229 363.556 27.1265V20.6812L363.567 20.4595C363.677 19.3669 364.601 18.5142 365.723 18.5142Z" fill="white" stroke="white"/>
<path opacity="0.4" d="M386.959 21.825V25.9821C387.796 25.63 388.34 24.811 388.34 23.9035C388.34 22.9961 387.796 22.1771 386.959 21.825Z" fill="white"/>
<path d="M365.134 21.4261C365.134 20.6897 365.731 20.0927 366.468 20.0927H382.508C383.245 20.0927 383.841 20.6897 383.841 21.4261V26.3808C383.841 27.1172 383.245 27.7141 382.508 27.7141H366.468C365.731 27.7141 365.134 27.1172 365.134 26.3808V21.4261Z" fill="white"/>
<path fill-rule="evenodd" clip-rule="evenodd" d="M349.888 20.3782C352.191 20.3783 354.406 21.2632 356.075 22.85C356.201 22.9725 356.401 22.9709 356.525 22.8465L357.727 21.634C357.789 21.5709 357.824 21.4854 357.824 21.3965C357.823 21.3076 357.787 21.2225 357.724 21.1601C353.343 16.9619 346.432 16.9619 342.051 21.1601C341.988 21.2224 341.952 21.3075 341.951 21.3964C341.951 21.4854 341.986 21.5709 342.048 21.634L343.25 22.8465C343.374 22.9711 343.575 22.9727 343.7 22.85C345.37 21.2631 347.585 20.3782 349.888 20.3782ZM349.888 24.323C351.153 24.3229 352.373 24.7932 353.311 25.6425C353.438 25.7631 353.638 25.7605 353.761 25.6367L354.961 24.4242C355.025 24.3606 355.06 24.2743 355.059 24.1846C355.058 24.095 355.021 24.0094 354.956 23.9471C352.1 21.2903 347.677 21.2903 344.821 23.9471C344.757 24.0094 344.72 24.095 344.719 24.1847C344.718 24.2744 344.753 24.3607 344.817 24.4242L346.016 25.6367C346.14 25.7605 346.34 25.7631 346.467 25.6425C347.404 24.7938 348.623 24.3235 349.888 24.323ZM352.291 26.9771C352.293 27.067 352.258 27.1537 352.194 27.2167L350.118 29.3116C350.057 29.3731 349.974 29.4078 349.888 29.4078C349.801 29.4078 349.718 29.3731 349.657 29.3116L347.581 27.2167C347.517 27.1537 347.482 27.067 347.484 26.9771C347.485 26.8872 347.524 26.802 347.591 26.7418C348.917 25.6205 350.858 25.6205 352.184 26.7418C352.251 26.8021 352.29 26.8872 352.291 26.9771Z" fill="white"/>
<path fill-rule="evenodd" clip-rule="evenodd" d="M335.688 18.3606H334.649C334.075 18.3606 333.609 18.8259 333.609 19.3998V28.407C333.609 28.9809 334.075 29.4462 334.649 29.4462H335.688C336.262 29.4462 336.727 28.9809 336.727 28.407V19.3998C336.727 18.8259 336.262 18.3606 335.688 18.3606ZM329.799 20.7855H330.838C331.412 20.7855 331.877 21.2508 331.877 21.8248V28.4069C331.877 28.9809 331.412 29.4462 330.838 29.4462H329.799C329.225 29.4462 328.759 28.9809 328.759 28.4069V21.8248C328.759 21.2508 329.225 20.7855 329.799 20.7855ZM325.988 23.2106H324.948C324.374 23.2106 323.909 23.6759 323.909 24.2499V28.407C323.909 28.981 324.374 29.4463 324.948 29.4463H325.988C326.562 29.4463 327.027 28.981 327.027 28.407V24.2499C327.027 23.6759 326.562 23.2106 325.988 23.2106ZM321.138 25.2892H320.099C319.525 25.2892 319.059 25.7545 319.059 26.3285V28.407C319.059 28.981 319.525 29.4463 320.099 29.4463H321.138C321.712 29.4463 322.177 28.981 322.177 28.407V26.3285C322.177 25.7545 321.712 25.2892 321.138 25.2892Z" fill="white"/>
<path d="M19.6083 29.1922C22.4019 29.1922 24.0613 27.0076 24.0613 23.3082C24.0613 21.9152 23.7949 20.743 23.2849 19.8372C22.5465 18.429 21.2753 17.6678 19.6692 17.6678C17.2791 17.6678 15.5892 19.2739 15.5892 21.527C15.5892 23.6431 17.1116 25.1808 19.2049 25.1808C20.4913 25.1808 21.5341 24.5794 22.0518 23.5366H22.0746C22.0746 23.5366 22.105 23.5366 22.1127 23.5366C22.1279 23.5366 22.1812 23.5366 22.1812 23.5366C22.1812 26.0485 21.2297 27.5481 19.6236 27.5481C18.6797 27.5481 17.9489 27.0305 17.6977 26.2008H15.7415C16.0688 28.0048 17.5988 29.1922 19.6083 29.1922ZM19.6768 23.6203C18.4133 23.6203 17.5151 22.7221 17.5151 21.4661C17.5151 20.2406 18.4589 19.3043 19.6845 19.3043C20.91 19.3043 21.8538 20.2558 21.8538 21.4966C21.8538 22.7221 20.9328 23.6203 19.6768 23.6203Z" fill="white"/>
<path d="M27.2738 29.0857C27.997 29.0857 28.4918 28.5681 28.4918 27.883C28.4918 27.1903 27.997 26.6803 27.2738 26.6803C26.5583 26.6803 26.0559 27.1903 26.0559 27.883C26.0559 28.5681 26.5583 29.0857 27.2738 29.0857ZM27.2738 23.3767C27.997 23.3767 28.4918 22.8667 28.4918 22.1817C28.4918 21.489 27.997 20.979 27.2738 20.979C26.5583 20.979 26.0559 21.489 26.0559 22.1817C26.0559 22.8667 26.5583 23.3767 27.2738 23.3767Z" fill="white"/>
<path d="M35.6168 28.9258H37.497V26.8782H38.9813V25.2188H37.497V17.9418H34.7262C32.7852 20.8648 31.24 23.3082 30.2504 25.1275V26.8782H35.6168V28.9258ZM32.0697 25.1503C33.3485 22.8972 34.4903 21.0932 35.5407 19.5403H35.6473V25.2645H32.0697V25.1503Z" fill="white"/>
<path d="M43.1682 28.9258H45.132V17.9418H43.1758L40.3061 19.9514V21.8391L43.0388 19.9209H43.1682V28.9258Z" fill="white"/>
</svg>
